PathFileType        4      (X/Y/Z)      C:\Users\ibrah\OneDrive - KTH\Model Validation - Orthoload\rmr-solver-1.0 - original\rmr-solver-1.0\ExperimentalData\S8R\trc\transformed_MSffkg1.trc         
DataRate	CameraRate	NumFrames	NumMarkers	Units	OrigDataRate	OrigDataStartFrame	OrigNumFrames
50.0	50.0	8	27	mm	50.0	354	566
Frame#	Time	IJ			PX			C7			T8			SC			AA			TS			AI			PC			ACv			ACd			GH			EM			EL			EM2			EL2			US			RS			US2			RS2			MCP2			MCP5			SCREWAA			SCREWTS			SCREWAI			ACvloc			ACdloc			
		X1	Y1	Z1	X2	Y2	Z2	X3	Y3	Z3	X4	Y4	Z4	X5	Y5	Z5	X6	Y6	Z6	X7	Y7	Z7	X8	Y8	Z8	X9	Y9	Z9	X10	Y10	Z10	X11	Y11	Z11	X12	Y12	Z12	X13	Y13	Z13	X14	Y14	Z14	X15	Y15	Z15	X16	Y16	Z16	X17	Y17	Z17	X18	Y18	Z18	X19	Y19	Z19	X20	Y20	Z20	X21	Y21	Z21	X22	Y22	Z22	X23	Y23	Z23	X24	Y24	Z24	X25	Y25	Z25	X26	Y26	Z26	X27	Y27	Z27	
354	7.06	-61.39078348821945	16.11510907464151	14.05639951962413	6.926222197192506	-116.5427273339802	14.87939536485324	-200.089095386636	87.24467605569052	19.56620482915066	-243.8973415199777	-119.5982050525489	23.27094907309525	-67.8771258811778	24.83788176974797	38.32708837297727	-171.4852786473743	23.16097614720527	200.3385450098905	-232.7515119849378	-9.814749720652195	129.4528023376572	-185.0458429470417	-168.7417118887433	133.6219053493659	-118.7100379386354	40.60202290110058	137.4073012889653	-166.383657006744	58.39731284706437	173.5332310672353	-166.383657006744	58.39731284706437	173.5332310672353	-131.0459932985518	-24.26011614639628	197.3372892398368	119.987057072928	-148.3585440347901	274.2857368753202	108.9986123984014	-107.2476454014539	332.280475912629													332.3055397024729	-92.54476413316735	322.5742256078736	331.6817705438504	-130.5974471425553	367.0826420329398																						
355	7.08	-61.14219052786417	15.52597628641829	14.10450244317619	6.967152375176212	-117.2458784967244	14.65870773559139	-199.7316280128216	86.86457167427756	19.71306941821566	-243.8646645347761	-119.9240044420394	22.93160716377674	-67.6250111821484	24.20471047198824	38.3930989823914	-171.4025215312808	21.53496515507996	200.8340649367105	-232.9257332719921	-9.453955731761395	129.2681742279582	-188.0215490402222	-169.2511341928789	131.5874683319827	-118.0531633414655	38.84785826273708	138.3579770520425	-165.5682030771268	57.01855533120266	174.5078175165457	-165.5682030771268	57.01855533120266	174.5078175165457	-131.8698619226299	-26.9985659882526	197.1761277533302	113.7402576700729	-161.4080591356146	274.3172949442169	103.9222952253454	-120.5431138577791	332.6853735700624													327.8611591881171	-116.659800315127	323.2684134577338	325.1791638802354	-154.5670708643268	367.816634308865																						
356	7.100000000000001	-60.82753886417719	14.99192299238974	14.08369261510163	7.083790410812038	-117.8871001839582	14.4167181687533	-199.3125304237654	86.53083340897616	19.78162027663745	-243.7550761115716	-120.2029408851613	22.6120311424431	-67.30416953715518	23.63660242803234	38.38703510118837	-171.1477035354119	19.96574479013888	201.3172370306116	-232.8520821699045	-9.066915504297574	129.0728817608059	-190.7027925838283	-169.6623848022969	129.5865238637491	-117.2038021190157	37.1321547774719	139.3200169195105	-164.5782062758737	55.67428832542468	175.4696547966202	-164.5782062758737	55.67428832542468	175.4696547966202	-132.6502198700788	-29.60931801719252	197.0304671035729	107.1471770143725	-174.1562490144609	274.1750168062694	98.52439139129511	-133.5709252698813	332.9169370813502													322.5662538488785	-140.4866961187531	323.843744847811	317.8418742359797	-178.1818234198751	368.3907444718258																						
357	7.12	-60.44832143382153	14.50986157613189	13.99470170558255	7.271715199311743	-118.4709785269962	14.15152512282588	-198.8315895903815	86.24330110110166	19.77604459455712	-243.5728730366761	-120.4343177056945	22.31531007935022	-66.91534785593831	23.13036172173128	38.30985024443864	-170.7231781356889	18.46885036673672	201.7861543213102	-232.5278907947836	-8.65554584098333	128.8664107170479	-193.0634419019915	-169.9728403454067	127.6370508999482	-116.1662963956828	35.47132146930144	140.2906122803098	-163.4210109899264	54.37839822854342	176.4129762560557	-163.4210109899264	54.37839822854342	176.4129762560557	-133.3874556084637	-32.05722414527699	196.9047310555429	100.2161018100544	-186.5472117046406	273.855556255343	92.81751875327693	-146.2757342516866	332.9712802903503													316.436017103688	-163.9318956384598	324.2932997942664	309.6903572897284	-201.3545470985908	368.7950385830887																						
358	7.140000000000001	-60.00377077791953	14.075106621079	13.84276261170724	7.529122380444546	-119.003587762817	13.86339050462074	-198.2865381599942	85.99976573716123	19.70515552824866	-243.3197009894402	-120.6197496194781	22.04384498113751	-66.45729776311612	22.68062972215646	38.16715540909115	-170.1351636600537	17.05760530683651	202.2384508956531	-231.9570867251965	-8.222069579576901	128.6482808842069	-195.0871008799501	-170.1818895470813	125.754655704712	-114.9498686160172	33.87974277811089	141.2653341923486	-162.1077250352476	53.14307483409559	177.3316587671485	-162.1077250352476	53.14307483409559	177.3316587671485	-134.0797368791191	-34.31247989834926	196.8020968601097	92.9574949336252	-198.5288011926018	273.3601771494583	86.8135868614091	-158.6069386542647	332.8492014734024													309.4900918819582	-186.9114887705405	324.608765784064	300.748810877809	-224.0066718964561	369.0200747330006																						
359	7.16	-59.49082096301307	13.68194568459595	13.63712887626182	7.856775422029679	-119.4919524217709	13.55525363427069	-197.6729941702573	85.79666321578001	19.58117359574184	-242.9946504890738	-120.7624060693418	21.79938086596436	-65.92679107408333	22.28061588501807	37.96866321749366	-169.3929992063238	15.74255313980251	202.6714766568884	-231.149929494126	-7.768819269239943	128.4184128437315	-196.7680920940467	-170.2910077211074	123.9521706423104	-113.567931102348	32.36897548938338	142.2381852288459	-160.6522782675315	51.97826185890879	178.2195176545224	-160.6522782675315	51.97826185890879	178.2195176545224	-134.7227709209575	-36.35153212043034	196.7249006071798	85.38478500762278	-210.0539127188245	272.6936948303223	80.52425205712589	-170.5200865133783	332.5554031549872													301.7526226910232	-209.3523484231013	324.7806605052315	291.0452884818002	-246.0691981025199	369.0571371066642																						
360	7.18	-58.90428605231792	13.32422205244247	13.39032317199905	8.257758758302884	-119.9434834066438	13.23292306298014	-196.9846219500236	85.62975753006573	19.41837646802123	-242.5945440236493	-120.8662661295526	21.58299241220683	-65.31882672771582	21.92284288751735	37.72736567881851	-168.5083104598598	14.5310411284239	203.0824902055153	-230.1223688324652	-7.298091035595084	128.1774113261495	-198.1116739199474	-170.3037220558392	122.2393913552015	-112.0372014467902	30.94715267147513	143.201797681038	-159.0704139447281	50.89123463323378	179.0706142029841	-159.0704139447281	50.89123463323378	179.0706142029841	-135.3097714640657	-38.1575836088245	196.6751415713589	77.51504286643319	-221.0815105117267	271.8632857038117	73.96138639363751	-181.9779465142919	332.0975208976926													293.2521812101737	-231.1927220096967	324.7987782365328	280.6116896399631	-267.4832194042772	368.8985547306052																						
361	7.2	-58.2372382235211	12.99587649443706	13.11718701710851	8.737063949314253	-120.3654364035153	12.90491478777569	-196.213503036095	85.49474370183876	19.2317602768922	-242.1143798017552	-120.935464131803	21.39502721598885	-64.62700858202422	21.59983565828407	37.45852557772528	-167.4941468726648	13.42698672556699	203.4688629019345	-228.8950599540752	-6.81205789112258	127.9267368326433	-199.1334575178424	-170.225473492191	120.6229621468547	-110.3766774486537	29.61864341542948	144.1477825538328	-157.3786836785409	49.88633908708792	179.8795639412017	-157.3786836785409	49.88633908708792	179.8795639412017	-135.831624932536	-39.72070364840945	196.6550188943961	69.36953256814726	-231.5773463463115	270.8772644593119	67.1375633294975	-192.9511755586088	331.4850370408513													284.021566730505	-252.3822975672745	324.6528215312875	269.4836171648496	-288.1999952404574	368.5380748454262																						
